<svg id="Capa_1" enable-background="new 0 0 512.5 512.5" height="512" viewBox="0 0 512.5 512.5" width="512" xmlns="http://www.w3.org/2000/svg"><g><path d="m160.988 222.09v68.32l59.167 34.16 59.167-34.16v-68.32l-59.167-34.16zm88.335 51-29.167 16.84-29.167-16.84v-33.68l29.167-16.84 29.167 16.84z"/><path d="m399.651 310.99c-12.402 0-23.738 4.629-32.392 12.239l-29.047-16.774v-99.93l40.624-23.282-14.917-26.029-39.739 22.774-87.9-50.749v-33.34c19.773-6.356 34.125-24.917 34.125-46.774 0-27.088-22.038-49.125-49.125-49.125s-49.125 22.037-49.125 49.125c0 21.857 14.352 40.418 34.125 46.774v32.041l-88.607 51.157-38.705-22.352-15.003 25.979 38.133 22.021v102.519l-38.374 21.992 14.917 26.029 38.61-22.127 89.029 51.401v32.041c-19.773 6.356-34.125 24.917-34.125 46.774 0 27.088 22.038 49.125 49.125 49.125s49.125-22.037 49.125-49.125c0-21.857-14.352-40.418-34.125-46.774v-33.34l87.483-50.508 28.058 16.203c-.837 3.588-1.294 7.32-1.294 11.16 0 27.088 22.038 49.125 49.125 49.125s49.125-22.037 49.125-49.125-22.038-49.125-49.126-49.125zm-178.371-280.99c10.545 0 19.125 8.579 19.125 19.125s-8.58 19.125-19.125 19.125-19.125-8.579-19.125-19.125 8.58-19.125 19.125-19.125zm0 452.5c-10.545 0-19.125-8.579-19.125-19.125s8.58-19.125 19.125-19.125 19.125 8.579 19.125 19.125-8.58 19.125-19.125 19.125zm86.932-175.41-88.057 50.84-88.057-50.84v-101.68l88.057-50.84 88.057 50.84zm91.439 72.15c-10.545 0-19.125-8.579-19.125-19.125s8.58-19.125 19.125-19.125 19.125 8.579 19.125 19.125-8.579 19.125-19.125 19.125z"/></g></svg>