<svg id="Capa_1" enable-background="new 0 0 512 512" height="512" viewBox="0 0 512 512" width="512" xmlns="http://www.w3.org/2000/svg" xmlns:xlink="http://www.w3.org/1999/xlink"><linearGradient id="SVGID_1_" gradientUnits="userSpaceOnUse" x1="256" x2="256" y1="512" y2="0"><stop offset="0" stop-color="#fd3a84"/><stop offset="1" stop-color="#ffa68d"/></linearGradient><g><g><g><path d="m480.999 375.999-62.056-46.542c1.335-4.251 2.057-8.771 2.057-13.457 0-19.555-12.541-36.228-30-42.42v-35.16c17.459-6.192 30-22.865 30-42.42 0-4.686-.722-9.206-2.057-13.457l62.056-46.542c6.627-4.971 7.971-14.373 3-21s-14.373-7.97-21-3l-62.074 46.555c-7.141-4.769-15.712-7.556-24.925-7.556s-17.784 2.787-24.925 7.556l-52.132-39.099c1.335-4.251 2.057-8.771 2.057-13.457 0-19.555-12.541-36.228-30-42.42v-48.58c0-8.284-6.716-15-15-15s-15 6.716-15 15v48.58c-17.459 6.192-30 22.865-30 42.42 0 4.686.722 9.206 2.057 13.457l-52.132 39.099c-7.141-4.769-15.712-7.556-24.925-7.556s-17.784 2.787-24.925 7.556l-62.074-46.555c-6.627-4.971-16.03-3.626-21 3-4.971 6.627-3.627 16.029 3 21l62.056 46.542c-1.335 4.251-2.057 8.771-2.057 13.457 0 19.555 12.541 36.228 30 42.42v35.16c-17.459 6.192-30 22.865-30 42.42 0 4.686.722 9.206 2.057 13.457l-62.056 46.542c-6.627 4.971-7.971 14.373-3 21 4.947 6.595 14.341 7.994 21 3l62.074-46.555c7.141 4.769 15.712 7.556 24.925 7.556s17.784-2.787 24.925-7.556l52.132 39.099c-1.335 4.251-2.057 8.771-2.057 13.457 0 19.555 12.541 36.228 30 42.42v48.58c0 8.284 6.716 15 15 15s15-6.716 15-15v-48.58c17.459-6.192 30-22.865 30-42.42 0-4.686-.722-9.206-2.057-13.457l52.132-39.099c7.141 4.769 15.712 7.556 24.925 7.556s17.784-2.787 24.925-7.556l62.074 46.555c6.598 4.949 16.008 3.657 21-3 4.971-6.627 3.627-16.029-3-21zm-104.999-194.999c8.271 0 15 6.729 15 15s-6.729 15-15 15-15-6.729-15-15 6.729-15 15-15zm-120-90c8.271 0 15 6.729 15 15s-6.729 15-15 15-15-6.729-15-15 6.729-15 15-15zm-120 90c8.271 0 15 6.729 15 15s-6.729 15-15 15-15-6.729-15-15 6.729-15 15-15zm0 150c-8.271 0-15-6.729-15-15s6.729-15 15-15 15 6.729 15 15-6.729 15-15 15zm120 90c-8.271 0-15-6.729-15-15s6.729-15 15-15 15 6.729 15 15-6.729 15-15 15zm75-105c0 4.686.722 9.206 2.057 13.457l-52.132 39.099c-7.141-4.769-15.712-7.556-24.925-7.556s-17.784 2.787-24.925 7.556l-52.132-39.099c1.335-4.251 2.057-8.771 2.057-13.457 0-19.555-12.541-36.228-30-42.42v-35.16c17.459-6.192 30-22.865 30-42.42 0-4.686-.722-9.206-2.057-13.457l52.132-39.099c7.141 4.769 15.712 7.556 24.925 7.556s17.784-2.787 24.925-7.556l52.132 39.099c-1.335 4.251-2.057 8.771-2.057 13.457 0 19.555 12.541 36.228 30 42.42v35.16c-17.459 6.192-30 22.865-30 42.42zm45 15c-8.271 0-15-6.729-15-15s6.729-15 15-15 15 6.729 15 15-6.729 15-15 15z" fill="url(#SVGID_1_)"/></g></g></g></svg>