<svg id="Capa_1" enable-background="new 0 0 512 512" height="512" viewBox="0 0 512 512" width="512" xmlns="http://www.w3.org/2000/svg" xmlns:xlink="http://www.w3.org/1999/xlink"><linearGradient id="SVGID_1_" gradientUnits="userSpaceOnUse" x1="256" x2="256" y1="512" y2="0"><stop offset="0" stop-color="#fd3a84"/><stop offset="1" stop-color="#ffa68d"/></linearGradient><linearGradient id="SVGID_2_" gradientUnits="userSpaceOnUse" x1="226" x2="226" y1="390" y2="90"><stop offset="0" stop-color="#ffc2cc"/><stop offset="1" stop-color="#fff2f4"/></linearGradient><g id="Genetic_2_"><g><g><path d="m479.418 308.291-58.447-116.895c-1.934-105.864-88.652-191.396-194.971-191.396-107.519 0-195 87.48-195 195 0 52.896 21.797 103.682 60 140.42v161.58c0 8.291 6.709 15 15 15h180c8.291 0 15-6.709 15-15v-47h105c8.291 0 15-6.709 15-15v-105h45c5.186 0 10.02-2.695 12.773-7.119 2.725-4.424 2.96-9.946.645-14.59z" fill="url(#SVGID_1_)"/></g></g><g><g><path d="m301 105c0-8.291-6.709-15-15-15h-120c-8.291 0-15 6.709-15 15 0 58.077 21.952 97.032 55.027 135-34.984 40.16-55.027 78.102-55.027 135 0 8.291 6.709 15 15 15h120c8.291 0 15-6.709 15-15 0-56.656-19.448-94.158-55.027-135 33.48-38.433 55.027-77.392 55.027-135zm-119.152 15h88.304c-.87 10.935-2.58 20.931-5.132 30h-78.04c-2.552-9.069-4.262-19.065-5.132-30zm17.325 60h53.654c-7.559 13.704-16.857 25.664-26.827 37.256-9.97-11.592-19.268-23.552-26.827-37.256zm70.979 180h-88.304c.87-10.935 2.58-20.931 5.132-30h78.04c2.552 9.069 4.263 19.065 5.132 30zm-17.325-60h-53.654c7.559-13.704 16.857-25.664 26.827-37.256 9.97 11.592 19.268 23.552 26.827 37.256z" fill="url(#SVGID_2_)"/></g></g></g></svg>