<?xml version="1.0" encoding="iso-8859-1"?>
<!-- Generator: Adobe Illustrator 19.0.0, SVG Export Plug-In . SVG Version: 6.00 Build 0)  -->
<svg version="1.1" id="Layer_1" xmlns="http://www.w3.org/2000/svg" xmlns:xlink="http://www.w3.org/1999/xlink" x="0px" y="0px"
	 viewBox="0 0 512 512" style="enable-background:new 0 0 512 512;" xml:space="preserve">
<g>
	<path style="fill:#E5D85A;" d="M111.709,153.6c0-17.964-14.618-32.582-32.582-32.582S46.545,135.636,46.545,153.6
		s14.618,32.582,32.582,32.582S111.709,171.564,111.709,153.6z"/>
	<path style="fill:#E5D85A;" d="M256,83.782c17.964,0,32.582-14.618,32.582-32.582S273.964,18.618,256,18.618
		S223.418,33.236,223.418,51.2S238.036,83.782,256,83.782z"/>
	<path style="fill:#E5D85A;" d="M432.873,186.182c17.964,0,32.582-14.618,32.582-32.582s-14.618-32.582-32.582-32.582
		s-32.582,14.618-32.582,32.582S414.909,186.182,432.873,186.182z"/>
	<path style="fill:#E5D85A;" d="M256,428.218c-17.964,0-32.582,14.618-32.582,32.582s14.618,32.582,32.582,32.582
		s32.582-14.618,32.582-32.582S273.964,428.218,256,428.218z"/>
	<path style="fill:#E5D85A;" d="M79.127,325.818c-17.964,0-32.582,14.618-32.582,32.582s14.618,32.582,32.582,32.582
		s32.582-14.618,32.582-32.582S97.091,325.818,79.127,325.818z"/>
	<path style="fill:#E5D85A;" d="M432.873,325.818c-17.964,0-32.582,14.618-32.582,32.582s14.618,32.582,32.582,32.582
		s32.582-14.618,32.582-32.582S450.836,325.818,432.873,325.818z"/>
</g>
<path style="fill:#5ECC66;" d="M256,204.8c-28.232,0-51.2,22.968-51.2,51.2s22.968,51.2,51.2,51.2s51.2-22.968,51.2-51.2
	S284.232,204.8,256,204.8z"/>
<g>
	<path style="fill:#314E55;" d="M256,186.182c-38.5,0-69.818,31.318-69.818,69.818S217.5,325.818,256,325.818
		S325.818,294.5,325.818,256S294.5,186.182,256,186.182z M256,307.2c-28.232,0-51.2-22.968-51.2-51.2s22.968-51.2,51.2-51.2
		s51.2,22.968,51.2,51.2S284.232,307.2,256,307.2z"/>
	<path style="fill:#314E55;" d="M446.555,309.113c0.02-0.249,0.145-0.462,0.145-0.717V202.85
		c21.527-6.053,37.373-25.815,37.373-49.25c0-28.232-22.968-51.2-51.2-51.2c-14.027,0-26.747,5.677-36.003,14.845
		c-14.915-8.657-30.935-18.111-46.619-27.377c-15.857-9.371-31.228-18.44-44.646-26.214c1.004-3.995,1.596-8.152,1.596-12.454
		C307.2,22.968,284.232,0,256,0s-51.2,22.968-51.2,51.2c0,4.661,0.681,9.158,1.853,13.452l-91.59,52.533
		c-9.251-9.131-21.942-14.785-35.936-14.785c-28.232,0-51.2,22.968-51.2,51.2c0,23.435,15.846,43.197,37.373,49.25v105.382
		c0,0.309,0.147,0.57,0.176,0.873C43.86,315.1,27.927,334.901,27.927,358.4c0,28.232,22.968,51.2,51.2,51.2
		c13.804,0,26.327-5.516,35.544-14.43c15.433,8.925,32.18,18.659,48.596,28.207c15.224,8.849,29.994,17.436,43.113,25.027
		c-0.994,3.977-1.58,8.114-1.58,12.395c0,28.232,22.968,51.2,51.2,51.2s51.2-22.968,51.2-51.2c0-4.545-0.654-8.931-1.77-13.13
		c15.112-8.708,31.852-18.304,48.229-27.684c15.603-8.942,30.647-17.565,43.499-24.97c9.233,9.007,21.828,14.584,35.715,14.584
		c28.232,0,51.2-22.968,51.2-51.2C484.073,334.912,468.155,315.118,446.555,309.113z M432.873,121.018
		c17.964,0,32.582,14.618,32.582,32.582s-14.618,32.582-32.582,32.582s-32.582-14.618-32.582-32.582
		S414.909,121.018,432.873,121.018z M256,18.618c17.964,0,32.582,14.618,32.582,32.582S273.964,83.782,256,83.782
		S223.418,69.164,223.418,51.2S238.036,18.618,256,18.618z M46.545,153.6c0-17.964,14.618-32.582,32.582-32.582
		s32.582,14.618,32.582,32.582s-14.618,32.582-32.582,32.582S46.545,171.564,46.545,153.6z M79.127,390.982
		c-17.964,0-32.582-14.618-32.582-32.582s14.618-32.582,32.582-32.582s32.582,14.618,32.582,32.582S97.091,390.982,79.127,390.982z
		 M256,493.382c-17.964,0-32.582-14.618-32.582-32.582s14.618-32.582,32.582-32.582s32.582,14.618,32.582,32.582
		S273.964,493.382,256,493.382z M344.4,403.832c-15.931,9.127-32.203,18.455-46.995,26.973C288.091,417.984,273.024,409.6,256,409.6
		c-17.286,0-32.568,8.634-41.844,21.791c-12.721-7.361-26.917-15.614-41.529-24.109c-15.89-9.242-32.084-18.654-47.113-27.35
		c3.056-6.557,4.813-13.834,4.813-21.532c0-26.615-20.418-48.532-46.409-50.957V204.557c25.991-2.425,46.409-24.342,46.409-50.957
		c0-7.515-1.668-14.634-4.589-21.069l89.051-51.076C224.118,94.127,239.093,102.4,256,102.4c17.264,0,32.527-8.613,41.806-21.741
		c13.019,7.552,27.757,16.252,42.971,25.236c15.276,9.023,30.865,18.22,45.452,26.702c-2.901,6.418-4.557,13.514-4.557,21.002
		c0,26.615,20.418,48.532,46.409,50.957v102.886c-25.991,2.425-46.409,24.342-46.409,50.957c0,7.618,1.718,14.827,4.715,21.332
		C373.869,386.943,359.397,395.236,344.4,403.832z M432.873,390.982c-17.964,0-32.582-14.618-32.582-32.582
		s14.618-32.582,32.582-32.582s32.582,14.618,32.582,32.582S450.836,390.982,432.873,390.982z"/>
</g>
<g>
</g>
<g>
</g>
<g>
</g>
<g>
</g>
<g>
</g>
<g>
</g>
<g>
</g>
<g>
</g>
<g>
</g>
<g>
</g>
<g>
</g>
<g>
</g>
<g>
</g>
<g>
</g>
<g>
</g>
</svg>
